<svg width="126" height="50" viewBox="0 0 126 50" fill="none" xmlns="http://www.w3.org/2000/svg">
<path d="M15.4025 18.856H7.7225V0.999998H0.0425014V25H15.4025V18.856ZM21.3193 13.032C21.3193 10.8347 21.5006 8.94667 21.8633 7.368C22.2473 5.768 22.8766 4.456 23.7513 3.432C24.6473 2.408 25.8206 1.65066 27.2713 1.16C28.7219 0.669333 30.5139 0.424 32.6473 0.424C34.8019 0.424 36.5939 0.669333 38.0233 1.16C39.4739 1.65066 40.6366 2.408 41.5113 3.432C42.4073 4.456 43.0366 5.768 43.3993 7.368C43.7833 8.94667 43.9753 10.8347 43.9753 13.032C43.9753 15.1227 43.8046 16.9573 43.4633 18.536C43.1219 20.0933 42.5139 21.3947 41.6393 22.44C40.7859 23.4853 39.6233 24.2747 38.1513 24.808C36.7006 25.32 34.8659 25.576 32.6473 25.576C30.4286 25.576 28.5833 25.32 27.1113 24.808C25.6606 24.2747 24.4979 23.4853 23.6233 22.44C22.7699 21.3947 22.1726 20.0933 21.8313 18.536C21.4899 16.9573 21.3193 15.1227 21.3193 13.032ZM29.5753 9.032V19.016H32.7753C33.8419 19.016 34.5993 18.8987 35.0473 18.664C35.5166 18.408 35.7513 17.8427 35.7513 16.968V6.984H32.5193C31.4953 6.984 30.7486 7.112 30.2793 7.368C29.8099 7.60267 29.5753 8.15733 29.5753 9.032ZM63.9067 17.928V16.904H61.9547V11.016H71.2027V23.848C68.1734 25 65.0267 25.576 61.7627 25.576C59.5227 25.576 57.6667 25.3093 56.1947 24.776C54.7441 24.2427 53.5921 23.4533 52.7387 22.408C51.8854 21.3413 51.2881 20.0293 50.9467 18.472C50.6267 16.8933 50.4667 15.0587 50.4667 12.968C50.4667 10.7493 50.6694 8.85067 51.0747 7.272C51.4801 5.672 52.1521 4.37067 53.0907 3.368C54.0294 2.344 55.2774 1.59733 56.8347 1.128C58.3921 0.658666 60.3227 0.424 62.6267 0.424C63.1387 0.424 63.7361 0.455999 64.4187 0.519999C65.1227 0.562666 65.8267 0.637333 66.5307 0.743999C67.2347 0.829333 67.8961 0.936 68.5147 1.064C69.1547 1.17067 69.6667 1.288 70.0507 1.416L68.8987 7.304C67.8534 7.13333 66.8614 7.00533 65.9227 6.92C64.9841 6.81333 64.1094 6.76 63.2987 6.76C61.6134 6.76 60.4294 6.888 59.7467 7.144C59.0641 7.4 58.7227 7.912 58.7227 8.68V19.56H61.2507C62.1894 19.56 62.8614 19.464 63.2667 19.272C63.6934 19.0587 63.9067 18.6107 63.9067 17.928ZM78.458 13.032C78.458 10.8347 78.6393 8.94667 79.002 7.368C79.386 5.768 80.0153 4.456 80.89 3.432C81.786 2.408 82.9593 1.65066 84.41 1.16C85.8607 0.669333 87.6527 0.424 89.786 0.424C91.9407 0.424 93.7327 0.669333 95.162 1.16C96.6127 1.65066 97.7753 2.408 98.65 3.432C99.546 4.456 100.175 5.768 100.538 7.368C100.922 8.94667 101.114 10.8347 101.114 13.032C101.114 15.1227 100.943 16.9573 100.602 18.536C100.261 20.0933 99.6527 21.3947 98.778 22.44C97.9247 23.4853 96.762 24.2747 95.29 24.808C93.8393 25.32 92.0047 25.576 89.786 25.576C87.5673 25.576 85.722 25.32 84.25 24.808C82.7993 24.2747 81.6367 23.4853 80.762 22.44C79.9087 21.3947 79.3113 20.0933 78.97 18.536C78.6287 16.9573 78.458 15.1227 78.458 13.032ZM86.714 9.032V19.016H89.914C90.9807 19.016 91.738 18.8987 92.186 18.664C92.6553 18.408 92.89 17.8427 92.89 16.968V6.984H89.658C88.634 6.984 87.8873 7.112 87.418 7.368C86.9487 7.60267 86.714 8.15733 86.714 9.032Z" fill="#F27F3D"/>
<path d="M62.1156 35.376H54.4356V32.144H62.6916L63.6516 26H46.7556V50H63.8436V43.856H54.4356V40.944H62.1156V35.376ZM77.9794 38.352H78.2034L81.1794 50H87.0354L89.9794 38.352H90.2354L90.6834 50H98.7154L97.2754 26H87.2274L84.2514 38.224H83.9634L80.9874 26H70.9714L69.4994 50H77.5314L77.9794 38.352ZM117.616 44.208H112.624V50H104.944V26H117.04C122.544 26 125.296 28.9547 125.296 34.864C125.296 36.1653 125.168 37.3813 124.912 38.512C124.656 39.6427 124.219 40.6347 123.6 41.488C123.003 42.32 122.214 42.9813 121.232 43.472C120.272 43.9627 119.067 44.208 117.616 44.208ZM114.384 32.144H112.624V38.064H114.384C115.323 38.064 115.995 37.968 116.4 37.776C116.827 37.584 117.04 37.136 117.04 36.432V33.744C117.04 33.0613 116.827 32.624 116.4 32.432C115.995 32.24 115.323 32.144 114.384 32.144Z" fill="#A64D2D"/>
</svg>
