<svg id="visual" viewBox="0 0 900 450" width="900" height="450" xmlns="http://www.w3.org/2000/svg" xmlns:xlink="http://www.w3.org/1999/xlink" version="1.1"><path d="M0 130L30 141.3C60 152.7 120 175.3 180 173.3C240 171.3 300 144.7 360 142.2C420 139.7 480 161.3 540 174.3C600 187.3 660 191.7 720 186.7C780 181.7 840 167.3 870 160.2L900 153L900 0L870 0C840 0 780 0 720 0C660 0 600 0 540 0C480 0 420 0 360 0C300 0 240 0 180 0C120 0 60 0 30 0L0 0Z" fill="#f37f3d"></path><path d="M0 87L30 88.3C60 89.7 120 92.3 180 87.7C240 83 300 71 360 76.5C420 82 480 105 540 103C600 101 660 74 720 64.8C780 55.7 840 64.3 870 68.7L900 73L900 0L870 0C840 0 780 0 720 0C660 0 600 0 540 0C480 0 420 0 360 0C300 0 240 0 180 0C120 0 60 0 30 0L0 0Z" fill="#262626"></path></svg>